<svg width="106" height="97" viewBox="0 0 106 97" fill="none" xmlns="http://www.w3.org/2000/svg">
	<g clip-path="url(#clip0_1_9)">
		<path d="M89.6244 59.9819C86.4942 68.2639 80.7346 74.6636 72.4701 78.0517V59.9819L82.3623 51.0717L72.4701 42.2885V29.8655C81.4858 29.238 87.7462 22.5873 87.7462 14.4308C87.7462 3.76456 77.6043 0 71.8447 0C70.5927 0 69.2146 7.62939e-06 67.2128 0.501953V1.00388C67.9633 1.00388 69.0894 0.878403 69.4658 0.878403C73.4732 0.878403 76.4782 2.76067 76.4782 6.39974C76.4782 9.16042 74.2237 11.9211 70.2178 11.9211C60.3256 11.9211 48.6811 3.89005 36.0351 3.89005C24.7663 3.89005 17.0033 12.2975 17.0033 20.8305C17.0033 29.238 21.8865 31.9987 27.02 33.881L27.1452 33.379C25.5175 32.3752 24.3906 30.6184 24.3906 27.8577C24.3906 24.0931 27.8965 20.956 32.2788 20.956C42.9215 20.956 60.0751 29.8655 70.7179 29.8655H71.7195V42.414L61.828 51.0717L71.7195 59.9819V78.3027C67.5877 79.8078 63.3306 80.4367 58.9483 80.4367C42.4207 80.4367 31.9032 70.3964 31.9032 53.7076C31.9032 49.6921 32.404 45.8021 33.5309 42.0375L41.7947 38.3985V75.2911L58.5726 67.8882V30.1164L33.9065 41.1591C36.4107 33.881 41.5442 28.6106 47.6795 25.599L47.5543 25.2225C31.0267 28.8616 15 41.4101 15 60.2329C15 81.9418 33.2805 97 54.5667 97C77.1035 97 89.8748 81.9418 90 59.9819H89.6244Z" fill="#B42F2F"/>
	</g>
	<g clip-path="url(#clip1_1_9)">
		<path d="M8.45111 60.5486C8.26667 60.8715 8.03612 61.1482 7.80557 61.3788C7.43669 60.272 7.20614 59.0729 7.0217 57.92C6.60672 55.7525 6.37617 53.5389 6.37617 51.3253C6.33006 49.2039 6.5145 47.0365 7.34447 45.0996C7.85168 43.9928 8.54333 42.9782 9.41941 42.1481C9.41941 46.5292 9.41941 50.9103 9.41941 55.2913C9.41941 56.2137 9.41941 57.0899 9.28108 58.0122C9.14276 58.8884 8.91221 59.7647 8.45111 60.5486ZM26.1573 61.6093C26.1112 63.5462 25.4656 65.5293 24.2668 67.0511C23.0679 68.6191 21.3157 69.7259 19.4252 70.1409C19.333 70.1409 19.2408 70.187 19.1486 70.187C19.1486 68.2963 19.1486 66.4516 19.1486 64.5608L26.1573 61.0098C26.1573 61.1943 26.1573 61.4249 26.1573 61.6093ZM19.1486 59.7185L25.0506 56.721C25.5117 57.6433 25.8345 58.6117 26.0189 59.5802L19.1486 63.0851V59.7185ZM19.1486 58.2428C19.1486 55.9831 19.1486 53.6773 19.1486 51.4175C20.9469 52.1093 22.5607 53.2622 23.7596 54.7379C23.9901 55.0146 24.1746 55.2913 24.359 55.568L19.1486 58.2428ZM17.8114 70.3254C16.1976 70.3254 14.5837 69.8642 13.1543 68.988C11.3099 67.8812 9.88051 66.1288 8.91221 64.1919C8.81999 64.0074 8.68166 63.7768 8.58944 63.5462C9.05053 63.4079 9.46552 63.2695 9.92662 63.0851C11.2177 62.5778 12.4165 61.8399 13.3849 60.7792C14.1226 60.0414 14.6759 59.1651 14.9987 58.1506C15.3215 57.1821 15.3676 56.1214 15.3676 55.0608V54.3229L17.8114 51.8787C17.8114 58.0122 17.8114 64.1458 17.8114 70.3254ZM15.3676 39.6117C15.4598 39.5656 15.5981 39.5656 15.6903 39.5194C15.6903 39.5194 15.7365 39.5194 15.7826 39.5194C16.9353 40.3957 18.1803 41.1796 19.4252 41.9175C20.8085 42.7476 22.2379 43.4855 23.7135 44.1772L15.3676 52.4321V48.7428V39.6117ZM23.2062 46.5292L30.8605 38.966L29.9383 37.9976L28.4167 39.5194C27.2178 39.1044 26.1112 38.5971 25.0045 38.0437C23.3446 37.1675 21.7768 36.1529 20.3013 35L15.7826 38.5971C11.4021 39.1044 7.16003 41.2719 4.25512 44.6384C1.67297 47.636 0.151343 51.4637 0.0130138 55.3375C-0.125316 58.7962 0.84299 62.255 2.73349 65.0681C4.6701 67.9273 7.52891 70.0948 10.8027 71.1555C13.3849 72.0317 16.1976 72.2162 18.8719 71.755C21.5924 71.2938 24.1746 70.1409 26.3417 68.4807C28.7394 66.6822 30.6299 64.1458 31.506 61.2865C32.4743 58.1506 32.1515 54.5535 30.4455 51.7404C28.8778 49.1117 26.2034 47.1748 23.2062 46.5292Z" fill="white"/>
		<path d="M36.0529 65.806L42.3238 71.0633L48.1336 66.4977C48.1797 66.8205 48.2259 67.0972 48.272 67.42C48.4564 68.3885 48.9175 69.3569 49.6553 70.0487C50.2086 70.556 50.9463 70.8788 51.6841 70.971L57.2173 67.1895L56.3412 66.0365L54.6351 67.42C54.2662 67.1895 53.9896 66.8205 53.759 66.4055C53.4363 65.7598 53.3902 65.022 53.3902 64.2841V62.3472V51.3253L55.3729 49.8035L54.6812 48.9272L53.0674 50.034L50.0241 47.3593L45.6898 51.3714L48.0875 53.4928V62.9467V64.3763C48.0875 64.653 48.0875 64.9297 48.0875 65.2064L45.8743 66.8205L43.0154 64.0535V52.9855C43.0154 52.386 42.9693 51.8326 42.831 51.2792C42.6927 50.6797 42.4621 50.1724 42.1394 49.6651C41.7244 49.0656 41.2172 48.5583 40.6177 48.0971C40.2489 47.8204 39.7878 47.636 39.3728 47.4515L33.4246 51.2792L33.8857 51.9248C34.2085 51.6942 34.5312 51.4637 34.9462 51.3253C35.0846 51.2792 35.2229 51.2331 35.3612 51.2331C35.684 51.1408 36.0068 51.187 36.2834 51.3253C36.6062 51.4637 36.8828 51.6481 37.0673 51.9248C37.2517 52.2015 37.3439 52.5243 37.4362 52.8472C37.4823 53.17 37.4823 53.4928 37.4823 53.8156V64.6069L36.0529 65.806Z" fill="white"/>
		<path d="M70.4335 65.6215L68.4508 66.9128L66.883 65.3909V51.4637L63.3787 47.267L57.2 51.4637L57.8455 52.3399L59.5977 51.2331L61.1654 53.2161V65.3909L58.2605 67.3739L58.9521 68.2501L60.4738 67.1433L64.9003 71.1094L71.5401 66.4977L70.4335 65.6215ZM59.6899 41.0413L63.6092 45.5146L68.0358 41.6408L64.0703 37.1675L59.6899 41.0413Z" fill="white"/>
		<path d="M80.7873 65.3909V35.5534H79.9112L72.3953 40.8568V41.5025C72.7642 41.6408 73.087 41.7792 73.4558 41.9636C73.7786 42.102 74.0553 42.3326 74.2858 42.6093C74.378 42.7937 74.4703 43.0243 74.5164 43.2549C74.6086 43.4855 74.6086 43.7161 74.6086 43.9466V64.9297L71.5192 66.9128L72.1648 67.8351L73.9169 66.7283L78.8046 70.9249L84.5222 66.9128L83.8767 66.0365L82.5395 67.1433L80.7873 65.3909Z" fill="white"/>
		<path d="M93.2276 48.9734L98.1152 53.4006V67.2817L93.2276 63.8691V48.9734ZM92.8587 48.6505L87.2794 52.1093V66.3132L93.9192 70.8327L104.017 64.8836V51.8326L106 50.2185L105.216 49.2039L103.51 50.5874L87.6022 36.6141V44.869L88.5244 44.7306L92.8587 48.6505Z" fill="white"/>
	</g>
	<defs>
		<clipPath id="clip0_1_9">
			<rect width="75" height="97" fill="white" transform="translate(15)"/>
		</clipPath>
		<clipPath id="clip1_1_9">
			<rect width="106" height="37" fill="white" transform="translate(0 35)"/>
		</clipPath>
	</defs>
</svg>
